<?xml version="1.0" standalone="no"?>
<!DOCTYPE svg PUBLIC "-//W3C//DTD SVG 20010904//EN"
 "http://www.w3.org/TR/2001/REC-SVG-20010904/DTD/svg10.dtd">
<svg version="1.0" xmlns="http://www.w3.org/2000/svg"
 width="350.000000pt" height="350.000000pt" viewBox="0 0 350.000000 350.000000"
 preserveAspectRatio="xMidYMid meet">

<g transform="translate(0.000000,350.000000) scale(0.100000,-0.100000)"
fill="#000000" stroke="none">
<path d="M1707 3151 c-9 -16 -17 -42 -17 -59 0 -25 -5 -30 -30 -35 -44 -9
-164 -126 -147 -143 3 -3 26 6 51 21 25 15 46 25 46 23 0 -2 -9 -22 -19 -45
-11 -22 -25 -70 -32 -107 -10 -54 -16 -66 -28 -60 -43 18 -52 15 -85 -19 -79
-84 -74 -224 13 -351 l30 -43 -24 -23 c-23 -22 -25 -22 -31 -4 -40 112 -90
217 -113 233 -28 19 -232 115 -374 176 -59 26 -91 35 -98 28 -6 -6 -21 -85
-35 -177 -18 -127 -29 -174 -46 -201 -13 -19 -25 -35 -28 -35 -21 1 -107 81
-137 128 -38 59 -174 344 -233 490 -28 69 -37 82 -57 82 -16 0 -25 -8 -30 -27
-12 -41 -7 -480 7 -629 24 -274 47 -370 103 -431 l20 -22 -38 -43 c-21 -24
-78 -84 -126 -135 -92 -94 -95 -96 -197 -108 l-52 -7 0 -133 0 -133 43 -25
c23 -14 45 -24 48 -23 3 0 13 -5 22 -12 9 -8 22 -10 28 -6 8 4 9 3 5 -4 -7
-12 5 -16 34 -12 8 1 12 -2 8 -6 -11 -10 54 -38 187 -80 60 -20 131 -44 158
-54 26 -10 47 -16 47 -14 0 3 -11 27 -25 54 -14 28 -20 50 -14 52 5 2 17 78
25 168 8 91 18 174 23 185 5 12 13 -61 21 -192 8 -117 16 -213 19 -213 4 0 12
9 19 20 15 25 35 25 70 1 22 -16 51 -20 162 -25 122 -5 131 -4 95 8 l-40 14
57 1 c70 1 146 29 189 67 64 59 134 250 163 447 20 134 20 177 1 252 -19 73
-112 269 -166 348 -22 32 -37 62 -33 68 3 5 -15 34 -40 64 -25 29 -46 60 -46
68 0 21 115 28 141 9 11 -7 19 -10 19 -5 0 4 5 1 10 -7 7 -11 10 -11 10 -2 0
10 7 9 29 -4 33 -19 53 -59 124 -244 140 -362 186 -579 153 -710 -51 -200
-241 -453 -397 -528 -86 -42 -159 -52 -400 -53 -289 -1 -420 21 -629 107 -126
52 -122 52 -118 18 3 -26 12 -32 108 -71 204 -82 379 -115 593 -112 104 1 121
-1 129 -16 6 -9 31 -30 56 -46 l46 -29 -45 0 c-25 0 -69 7 -98 16 -29 8 -55
13 -58 10 -3 -3 4 -32 15 -63 l22 -58 -49 53 c-28 28 -52 52 -54 52 -2 0 -7
-22 -10 -49 -6 -52 -26 -98 -59 -141 l-20 -25 8 65 c17 136 4 173 -28 79 -10
-28 -41 -95 -70 -150 l-53 -100 -14 33 c-10 23 -15 74 -15 165 l-1 132 -106
-104 c-106 -105 -128 -119 -227 -149 -56 -16 -57 -15 -16 39 40 54 98 185 86
197 -7 7 -13 4 -21 -10 -6 -11 -35 -36 -66 -56 -30 -21 -55 -44 -55 -52 0 -18
2 -18 46 8 l37 21 -13 -24 c-7 -13 -26 -43 -41 -66 -26 -37 -29 -50 -29 -124
l0 -81 30 5 c22 5 50 -3 107 -29 180 -83 388 -154 808 -274 99 -29 235 -72
302 -96 118 -43 125 -44 240 -44 83 0 114 3 103 10 -9 6 -42 8 -83 4 l-68 -6
-38 41 c-21 23 -43 41 -49 41 -16 0 -15 3 9 90 24 86 57 150 74 144 13 -5 21
11 71 134 48 118 57 128 156 178 l88 44 20 -20 c42 -42 116 -8 108 50 -2 16
-1 27 4 24 15 -10 8 -67 -13 -100 -11 -19 -41 -48 -65 -65 -51 -35 -64 -61
-64 -125 0 -49 22 -79 66 -90 24 -6 165 16 339 53 67 15 73 18 140 88 39 40
80 78 92 84 25 13 70 15 76 4 3 -5 -7 -34 -20 -65 -17 -39 -31 -58 -43 -58
-42 0 -30 69 17 94 33 18 25 21 -11 5 -42 -20 -59 -109 -20 -109 19 0 18 -14
-5 -58 -23 -46 -38 -59 -124 -111 -53 -32 -163 -116 -207 -159 -10 -10 47 11
106 38 34 15 80 45 103 65 81 74 39 19 -60 -77 -55 -54 -95 -98 -89 -98 6 0
40 20 75 45 l64 46 -9 -33 c-6 -18 -21 -48 -35 -68 -16 -23 -21 -36 -13 -39
18 -6 65 53 84 108 19 51 48 77 94 83 14 2 26 -1 27 -7 1 -5 -6 -9 -15 -8 -9
1 -24 -3 -33 -8 -22 -11 -35 -65 -20 -83 8 -10 7 -23 -4 -50 l-15 -36 412 2
413 3 23 80 c26 93 25 116 -5 130 -15 6 -23 18 -23 35 0 14 -14 54 -31 90 -30
63 -31 64 -43 41 l-13 -24 -7 29 c-4 16 -25 60 -48 98 l-40 69 -21 -47 c-11
-25 -22 -46 -26 -46 -3 1 -24 39 -45 86 -44 94 -66 122 -66 83 0 -13 -4 -31
-10 -39 -11 -18 -16 -7 -25 63 -5 38 -2 57 15 92 35 72 47 74 42 6 -3 -44 1
-70 17 -106 25 -57 39 -56 15 1 -18 42 -16 146 3 165 8 8 50 -4 91 -27 2 -1
-8 -24 -21 -51 -14 -26 -29 -64 -35 -83 -5 -19 -13 -43 -17 -52 -4 -10 -3 -18
2 -18 5 0 17 24 26 53 9 29 23 62 32 72 14 20 14 20 15 -1 0 -43 32 -126 59
-156 l28 -32 17 55 c9 29 25 65 36 79 l20 25 0 -48 c0 -26 7 -62 14 -80 17
-36 50 -77 63 -77 4 0 21 28 36 63 l28 62 20 -37 c17 -33 75 -88 92 -88 4 0 7
26 7 58 1 83 14 130 48 166 17 17 33 47 37 67 14 78 -33 229 -106 336 -18 26
-116 134 -219 238 -102 105 -205 214 -229 243 -40 48 -41 52 -20 52 75 0 247
-63 380 -140 86 -50 144 -65 137 -36 -2 8 -37 43 -79 78 -41 35 -129 108 -195
163 -279 235 -322 257 -569 285 -55 6 -114 13 -132 16 l-32 5 30 42 c41 59 63
197 31 197 -5 0 -13 -28 -16 -62 -4 -34 -17 -80 -28 -102 -28 -56 -203 -227
-255 -250 -52 -23 -72 -18 -159 40 -173 116 -286 226 -303 295 -6 24 -16 58
-21 74 -6 17 -13 58 -17 92 l-6 62 -38 -22 -38 -22 -28 21 c-15 11 -46 55 -67
98 l-40 77 11 66 c20 113 64 147 129 98 18 -14 34 -23 34 -19 0 3 6 1 14 -6 8
-6 24 -40 36 -76 12 -35 23 -64 26 -64 2 0 11 26 20 57 10 33 29 69 45 85 37
37 29 58 -23 58 -49 0 -48 23 1 28 26 3 31 7 26 22 -3 10 -1 21 5 25 6 3 10
-3 10 -14 0 -16 6 -21 25 -21 23 0 24 2 14 27 -14 37 -23 41 -75 35 -36 -4
-44 -2 -44 12 0 12 10 16 38 16 48 0 57 7 77 58 l18 43 18 -40 c10 -23 22 -41
27 -41 17 0 32 25 32 52 0 20 -8 31 -30 43 -26 13 -30 21 -30 55 0 33 -3 40
-20 40 -29 0 -60 36 -60 70 0 38 -11 38 -33 1z m-1374 -358 c2 -57 0 -103 -5
-103 -4 0 -8 51 -7 113 1 134 6 130 12 -10z m1251 -65 c-6 -10 -5 -10 7 -1 16
13 59 14 59 1 0 -4 21 -8 46 -8 46 0 46 0 24 -18 -11 -9 -29 -41 -38 -70 l-18
-53 -18 52 c-14 37 -28 57 -52 71 -31 18 -38 38 -13 38 6 0 7 -6 3 -12z
m-1240 -114 c10 -76 8 -104 -9 -104 -12 0 -15 15 -15 75 0 84 14 100 24 29z
m18 -209 c4 -44 12 -88 18 -97 6 -11 6 -18 1 -18 -5 0 -16 -3 -24 -6 -16 -6
-20 11 -31 144 -5 57 -4 63 12 60 14 -3 18 -19 24 -83z m677 -61 c-12 -50 -28
-79 -37 -69 -3 2 6 32 19 64 13 33 25 59 27 57 1 -2 -2 -25 -9 -52z m-205 -12
c8 -14 -19 -41 -34 -32 -11 7 -11 11 -1 24 15 17 27 20 35 8z m-444 -87 c0
-21 68 -155 79 -155 10 0 52 31 101 74 32 29 32 28 -5 -12 -55 -60 -121 -104
-158 -106 -31 -1 -32 1 -43 54 -6 31 -14 79 -18 108 -7 51 -6 52 19 52 16 0
25 -6 25 -15z m618 -35 c-8 -29 -16 -40 -29 -40 -22 0 -23 3 -7 47 7 20 19 33
29 33 15 0 16 -5 7 -40z m529 -17 c55 -36 88 -135 99 -293 8 -124 22 -184 23
-102 1 45 4 52 21 52 13 0 18 -5 13 -16 -4 -12 1 -11 28 5 19 12 44 21 55 21
12 0 33 9 47 20 51 40 39 -1 -20 -66 -90 -101 -103 -123 -103 -171 0 -56 17
-64 27 -12 9 44 37 73 83 84 26 6 26 5 37 -82 10 -78 9 -92 -7 -123 -9 -19
-36 -91 -60 -160 -24 -69 -46 -129 -50 -133 -4 -4 -19 40 -35 98 -15 58 -41
133 -56 166 -26 55 -29 74 -33 183 -4 127 -29 237 -105 460 -17 50 -31 91 -31
94 0 6 44 -10 67 -25z m-552 -56 c-2 -7 -9 -31 -15 -54 -8 -32 -16 -43 -30
-43 -24 0 -24 -1 -5 65 13 44 19 52 35 48 10 -3 17 -10 15 -16z m-460 -149
c31 -49 49 -65 89 -83 l49 -22 -58 -11 c-76 -16 -95 -15 -109 2 -6 8 -30 38
-53 68 -23 29 -43 59 -45 66 -3 12 46 37 77 41 6 0 28 -27 50 -61z m425 5 c0
-16 -3 -45 -6 -65 -6 -32 -11 -38 -30 -38 -20 0 -24 5 -24 28 0 53 20 102 40
102 15 0 20 -7 20 -27z m1420 -63 c0 -5 -14 -10 -31 -10 -17 0 -28 4 -24 10 3
6 17 10 31 10 13 0 24 -4 24 -10z m269 -10 c144 -19 204 -51 466 -257 152
-120 200 -165 125 -119 -152 93 -372 150 -513 132 -47 -6 -58 -11 -55 -24 2
-12 16 -18 47 -20 42 -3 53 -12 195 -145 83 -77 210 -200 282 -271 118 -119
135 -140 178 -226 38 -77 48 -108 53 -167 7 -91 -9 -123 -62 -123 -18 0 -44 4
-58 9 -13 5 -72 73 -132 150 -91 119 -125 156 -125 138 0 -9 56 -139 81 -189
16 -32 27 -58 24 -58 -2 0 -34 11 -70 25 -86 32 -205 92 -302 153 -43 27 -83
52 -90 55 -9 6 -10 -14 -6 -80 l6 -88 -53 -40 c-71 -53 -92 -84 -88 -125 l3
-33 33 28 c18 15 35 25 37 23 3 -3 -1 -26 -9 -51 -12 -41 -12 -47 1 -47 29 0
54 22 78 71 20 39 23 53 15 70 -16 28 -16 111 0 148 7 17 14 31 16 31 2 0 73
-39 83 -46 1 -2 -8 -18 -22 -36 -37 -49 -45 -68 -61 -145 -8 -39 -24 -89 -35
-112 -21 -40 -17 -53 7 -29 23 23 13 -15 -13 -55 -19 -27 -33 -37 -52 -37 -15
0 -39 -11 -53 -25 l-27 -26 -62 17 c-33 10 -61 21 -61 25 0 4 16 41 36 82 42
90 37 117 -22 117 -53 0 -104 -32 -167 -103 -49 -56 -63 -66 -114 -80 -143
-39 -319 -59 -349 -39 -22 15 -36 54 -30 88 5 24 22 46 60 79 63 53 88 100 84
152 -2 28 -10 41 -28 51 -23 13 -34 11 -138 -33 -62 -27 -115 -46 -118 -43 -3
3 -29 102 -58 219 -29 118 -64 246 -76 285 l-23 71 32 57 c18 31 34 56 36 56
3 0 21 -53 41 -117 20 -65 40 -122 45 -127 5 -5 4 6 -2 25 -14 45 -24 79 -50
171 -19 66 -20 81 -9 107 7 17 19 31 26 31 23 0 41 -40 84 -190 23 -80 43
-146 44 -148 2 -1 18 37 36 85 54 142 101 253 109 253 4 0 20 -31 36 -70 22
-56 31 -68 42 -59 18 15 16 35 -6 95 -42 110 -68 362 -42 403 14 21 61 -11 54
-37 -13 -52 48 -332 73 -332 8 0 14 4 14 10 0 5 12 13 27 16 15 4 57 22 94 40
36 18 78 36 93 40 14 3 23 11 19 17 -3 6 -1 7 5 3 21 -13 63 6 77 35 17 31 45
30 45 -2 0 -26 27 -13 34 17 4 16 14 24 29 25 21 0 21 1 2 10 -18 9 -20 18
-17 87 2 42 6 79 8 81 6 6 249 -21 306 -35 32 -7 86 -28 120 -45 67 -33 67
-31 3 18 -88 67 -244 121 -355 124 -25 1 -56 5 -70 9 -39 12 79 12 179 0z
m-1687 -72 c3 -37 54 -78 97 -78 20 0 23 -2 11 -10 -20 -13 -80 -13 -117 0
-23 8 -31 20 -41 55 -17 62 -16 65 17 65 26 0 30 -4 33 -32z m-508 -30 c-12
-13 -26 -30 -32 -38 -89 -114 -146 -181 -162 -190 -24 -13 -67 -13 -75 0 -3 6
-3 10 2 10 12 0 65 54 168 168 78 86 92 98 104 86 13 -12 12 -17 -5 -36z
m1971 -90 c-8 -61 -9 -63 -27 -51 -12 7 -12 15 -1 56 19 65 37 62 28 -5z
m-1545 -35 c0 -20 -4 -24 -22 -21 -25 3 -37 36 -17 48 20 13 39 0 39 -27z
m145 -208 c0 -22 -31 -33 -47 -17 -17 17 -1 44 24 40 15 -2 23 -10 23 -23z
m385 -644 c11 -44 22 -86 25 -93 5 -11 -7 -13 -60 -10 -103 7 -130 -12 -149
-101 l-7 -28 -39 32 -40 32 0 98 0 99 26 -10 c39 -15 110 -12 124 5 17 20 23
91 13 140 -9 38 -8 41 31 76 l41 37 7 -99 c4 -55 17 -135 28 -178z m1807 -65
c29 -37 40 -57 29 -53 -10 4 -28 10 -41 13 -17 4 -32 25 -54 75 -48 107 -45
105 66 -35z m-2417 24 c0 -5 -4 -10 -10 -10 -5 0 -10 5 -10 10 0 6 5 10 10 10
6 0 10 -4 10 -10z m-101 -144 c-41 -77 -72 -181 -84 -283 -4 -35 -9 -63 -11
-63 -22 0 -308 115 -414 166 l-135 65 67 23 c80 27 129 60 201 135 l54 57 11
-101 c11 -100 37 -195 52 -195 5 0 36 51 70 113 58 105 66 110 44 23 -10 -40
17 -33 61 15 39 44 74 111 75 143 0 18 1 18 24 -3 l24 -23 -39 -72z m2343 91
l67 -22 -34 -54 c-19 -29 -37 -66 -40 -82 -10 -45 -24 -44 -45 3 -13 29 -20
65 -20 111 0 37 1 67 3 67 1 0 32 -11 69 -23z m-2166 -16 c45 -28 47 -52 9
-108 -34 -51 -74 -151 -95 -241 -13 -58 -34 -76 -78 -69 -70 12 -73 21 -42
141 19 74 65 182 94 219 12 16 17 16 35 6 26 -17 34 -8 22 23 -7 18 -6 29 2
37 15 15 17 14 53 -8z m998 -17 c10 -26 7 -33 -19 -50 -29 -19 -75 -12 -75 11
0 8 17 23 38 34 46 25 48 25 56 5z m1336 -15 c55 -12 63 -27 33 -69 -10 -14
-30 -50 -44 -80 l-27 -55 -21 35 c-21 36 -27 89 -15 149 7 35 6 35 74 20z
m149 -46 c0 -16 -6 -54 -13 -86 -11 -55 -13 -57 -28 -40 -24 26 -38 69 -38
114 0 39 0 39 40 39 37 0 40 -2 39 -27z m-2402 -112 c5 -3 33 -24 63 -47 77
-56 127 -86 160 -93 l27 -6 -28 -60 c-16 -33 -29 -52 -29 -43 0 9 -15 28 -32
41 -58 44 -232 137 -255 137 -13 0 -23 2 -23 4 0 10 54 113 68 129 14 16 16
15 28 -19 7 -20 17 -40 21 -43z m1907 -108 c-9 -51 -40 -110 -63 -123 -34 -17
-55 -11 -95 28 l-39 37 45 5 c33 4 60 17 99 47 30 23 55 42 57 42 2 1 0 -16
-4 -36z m-1519 -43 l38 -39 -25 -58 c-15 -32 -29 -74 -33 -93 -4 -19 -12 -41
-17 -48 -13 -15 -64 -16 -107 -1 -39 14 -40 37 -6 133 28 80 71 146 94 146 9
0 34 -18 56 -40z m1590 -120 c-14 -28 -20 -31 -48 -25 -75 15 -84 24 -42 43
13 6 41 37 62 68 l38 58 3 -57 c2 -37 -2 -67 -13 -87z m165 -17 c0 -31 -2 -33
-35 -33 -19 0 -35 3 -35 7 0 4 10 32 22 61 l23 54 12 -28 c7 -16 12 -44 13
-61z m-731 -135 c-16 -31 -23 -38 -30 -27 -16 26 7 68 39 69 9 0 6 -12 -9 -42z"/>
<path d="M2555 1651 c-17 -4 -51 -22 -75 -41 -34 -25 -39 -31 -20 -26 14 3 60
13 103 23 62 13 77 20 77 35 0 20 -28 22 -85 9z"/>
<path d="M2378 1560 c-22 -39 -15 -39 12 0 12 17 18 30 13 30 -4 0 -16 -14
-25 -30z"/>
<path d="M2810 1443 c0 -6 28 -46 63 -90 35 -43 90 -114 124 -158 33 -44 74
-92 89 -106 28 -25 154 -111 154 -104 0 6 -92 170 -103 184 -9 10 -152 135
-309 269 -10 8 -18 10 -18 5z m336 -328 c11 -16 29 -43 39 -59 l19 -28 -51 31
c-28 18 -66 48 -85 69 -42 46 -158 199 -158 207 0 12 216 -189 236 -220z"/>
<path d="M2350 1423 c0 -25 12 -40 35 -45 11 -2 19 -10 17 -17 -2 -8 8 -11 30
-9 22 2 32 8 30 17 -2 10 4 12 22 7 38 -9 41 11 5 30 -22 11 -44 14 -71 10
-29 -5 -40 -3 -44 9 -8 21 -24 19 -24 -2z"/>
<path d="M2687 1233 c62 -99 110 -148 213 -216 37 -26 42 -21 21 21 -22 42
-65 85 -166 166 -78 62 -94 69 -68 29z m153 -131 c36 -33 63 -62 60 -65 -9 -9
-103 67 -134 108 -39 50 -10 34 74 -43z"/>
<path d="M2532 1217 c-6 -7 -34 -24 -62 -37 -54 -25 -73 -56 -47 -74 9 -6 42
-29 72 -51 l57 -40 -29 -6 c-15 -4 -41 -10 -57 -14 -23 -5 -27 -8 -15 -16 26
-16 67 -9 96 16 l28 25 -21 18 c-11 9 -39 33 -63 53 l-43 36 55 31 c62 35 92
72 59 72 -11 0 -24 -6 -30 -13z"/>
<path d="M1866 1205 c-9 -26 -7 -32 5 -12 6 10 9 21 6 23 -2 3 -7 -2 -11 -11z"/>
<path d="M1912 1093 c-28 -60 -60 -130 -71 -156 l-21 -48 25 -9 c53 -20 117
34 160 135 24 57 24 138 0 164 -10 12 -23 21 -30 21 -7 0 -35 -48 -63 -107z"/>
<path d="M1840 1149 c-7 -11 -10 -23 -7 -25 2 -2 9 7 15 21 14 30 7 33 -8 4z"/>
<path d="M1661 1024 c0 -11 3 -14 6 -6 3 7 2 16 -1 19 -3 4 -6 -2 -5 -13z"/>
<path d="M2032 3135 c-76 -14 -98 -24 -72 -33 32 -10 107 -99 114 -135 6 -34
9 -36 54 -42 116 -14 156 -43 224 -162 l30 -53 40 21 c35 18 43 19 54 7 18
-18 44 -138 44 -205 0 -52 -6 -63 -25 -44 -6 6 -30 -3 -65 -25 -62 -39 -70
-41 -70 -16 -1 13 -5 11 -23 -10 -24 -30 -61 -39 -51 -13 5 12 0 14 -27 9 -31
-5 -32 -4 -16 9 16 14 16 18 -12 78 -17 34 -36 96 -43 136 -12 75 -20 83 -62
67 -14 -5 -14 -9 0 -36 8 -16 13 -35 11 -41 -2 -7 2 -27 9 -44 14 -35 10 -38
-30 -23 -39 15 -40 -6 -1 -30 31 -19 95 -89 95 -104 0 -10 -60 -7 -83 5 -12 6
-40 28 -61 48 l-39 36 22 -32 c22 -32 63 -66 91 -75 8 -3 -4 -8 -28 -11 -23
-4 -42 -12 -42 -18 0 -8 13 -9 38 -5 148 26 171 18 173 -63 1 -25 4 -57 8 -71
6 -19 10 -8 15 47 l8 72 31 -5 c18 -3 40 -7 50 -9 9 -2 15 1 12 5 -8 14 6 40
22 40 8 0 26 9 40 20 32 25 62 28 42 4 -10 -13 -10 -17 2 -25 19 -12 37 46 38
121 l1 56 68 16 c90 21 213 70 209 83 -2 5 -36 13 -76 17 -104 9 -108 23 -9
36 101 15 168 15 202 2 77 -29 6 48 -122 132 l-77 50 65 -5 c36 -3 73 -8 84
-13 14 -5 18 -3 14 7 -2 8 -44 34 -94 59 -91 47 -204 80 -268 80 -20 0 -36 4
-36 9 0 5 31 24 70 42 38 19 70 37 70 42 0 15 -98 6 -226 -23 -154 -34 -292
-50 -259 -29 11 7 38 18 61 24 22 5 41 15 42 20 3 15 -153 15 -236 0z m545
-12 c-9 -8 -184 -42 -217 -42 -14 1 20 11 75 24 102 23 153 30 142 18z m312
-327 c20 -24 5 -19 -22 7 -12 12 -36 32 -52 45 -17 13 -9 10 16 -7 25 -16 51
-36 58 -45z m-299 39 c13 -14 19 -25 13 -25 -5 0 -20 11 -33 25 -13 14 -19 25
-13 25 5 0 20 -11 33 -25z m148 -166 c20 0 12 -6 -35 -24 -73 -29 -163 -43
-163 -26 0 6 12 11 28 11 36 1 106 26 110 40 2 6 11 9 19 6 8 -3 27 -6 41 -7z"/>
<path d="M1880 3099 c-13 -6 -26 -12 -28 -14 -7 -7 19 -45 40 -56 31 -17 50
11 36 52 -11 32 -12 32 -48 18z"/>
<path d="M1482 2687 c-20 -24 -42 -85 -41 -114 0 -15 3 -21 5 -13 24 71 38
100 50 100 25 0 27 -28 4 -67 -15 -26 -17 -33 -5 -23 9 7 23 27 31 43 28 53
27 19 -2 -59 -27 -75 -27 -77 -10 -109 24 -43 56 -61 85 -46 28 15 27 25 -5
50 -33 26 -57 27 -26 2 25 -22 28 -31 9 -31 -8 0 -24 11 -36 24 -19 20 -22 32
-17 59 8 43 33 68 47 46 23 -36 6 50 -19 96 -28 52 -51 65 -70 42z"/>
<path d="M2327 2337 c-6 -17 23 -98 33 -92 10 6 1 43 -11 51 -5 3 -9 10 -9 15
0 5 11 2 25 -7 39 -25 39 -12 0 19 -22 18 -35 23 -38 14z"/>
<path d="M1875 2301 l-30 -16 27 -3 c20 -2 36 -18 67 -66 22 -34 53 -73 68
-87 34 -32 180 -112 195 -107 6 2 -27 31 -73 65 -101 73 -211 185 -203 206 8
22 -18 27 -51 8z m210 -199 l30 -23 -32 16 c-39 18 -103 73 -103 87 0 6 17 -5
38 -23 20 -19 51 -44 67 -57z"/>
<path d="M2140 2180 c0 -27 1 -53 3 -57 3 -11 114 -5 138 7 14 8 19 21 18 53
-1 43 -3 42 -13 -5 -10 -43 -50 -38 -96 12 -20 22 -40 40 -43 40 -4 0 -7 -22
-7 -50z"/>
<path d="M1990 2005 c0 -13 74 -45 104 -45 38 0 45 10 22 29 -13 11 -126 25
-126 16z"/>
<path d="M295 91 c-3 -5 -33 -28 -66 -50 l-61 -41 66 0 67 0 15 36 c15 36 13
64 -5 64 -5 0 -12 -4 -16 -9z"/>
<path d="M1894 86 c22 -17 81 -22 91 -7 3 6 -8 8 -28 4 -19 -3 -45 0 -58 6
-23 12 -23 11 -5 -3z"/>
<path d="M58 57 c-52 -8 -58 -12 -58 -33 0 -22 4 -24 48 -24 48 0 82 20 82 48
0 17 -11 19 -72 9z"/>
<path d="M2030 10 c-9 -6 -10 -10 -3 -10 6 0 15 5 18 10 8 12 4 12 -15 0z"/>
</g>
</svg>
